<svg xmlns="http://www.w3.org/2000/svg" viewBox="0 0 100 100" width="100" height="100">
  <defs>
    <linearGradient id="mavGradient" x1="0%" y1="0%" x2="100%" y2="100%">
      <stop offset="0%" style="stop-color:#0052b4;stop-opacity:1" />
      <stop offset="100%" style="stop-color:#002d5f;stop-opacity:1" />
    </linearGradient>
  </defs>
  
  <!-- Background circle -->
  <circle cx="50" cy="50" r="45" fill="url(#mavGradient)" stroke="#ffffff" stroke-width="3"/>
  
  <!-- Mavericks "M" -->
  <path d="M25 25 L25 75 L35 75 L35 45 L45 60 L55 60 L65 45 L65 75 L75 75 L75 25 L65 25 L65 40 L55 25 L45 25 L35 40 L35 25 Z" fill="#ffffff"/>
  
  <!-- Basketball -->
  <circle cx="50" cy="50" r="8" fill="none" stroke="#ffffff" stroke-width="2"/>
  <path d="M42 50 L58 50" stroke="#ffffff" stroke-width="2"/>
  <path d="M50 42 L50 58" stroke="#ffffff" stroke-width="2"/>
  <path d="M44 44 L56 56" stroke="#ffffff" stroke-width="1"/>
  <path d="M56 44 L44 56" stroke="#ffffff" stroke-width="1"/>
</svg>

